<svg xmlns="http://www.w3.org/2000/svg" viewBox="0 0 80 80" role="img" aria-label="Cavalo">
  <circle cx="40" cy="40" r="40" fill="#e8f8f1"/>
  <!-- orelhas -->
  <path d="M27 31 L21 11 L37 25 Z" fill="#8a5a36"/>
  <path d="M53 31 L59 11 L43 25 Z" fill="#8a5a36"/>
  <path d="M28 29 L25 18 L34 26 Z" fill="#c08a5e"/>
  <path d="M52 29 L55 18 L46 26 Z" fill="#c08a5e"/>
  <!-- rosto -->
  <path d="M40 17 C52 17 58 25 58 38 C58 52 50 65 40 65 C30 65 22 52 22 38 C22 25 28 17 40 17 Z" fill="#b9835a"/>
  <!-- topete -->
  <path d="M33 19 C35 11 45 11 47 19 C44 24 36 24 33 19 Z" fill="#6b4a2f"/>
  <!-- focinho -->
  <ellipse cx="40" cy="54" rx="13" ry="9.5" fill="#dcb891"/>
  <!-- olhos -->
  <circle cx="32" cy="38" r="3.1" fill="#3a2a1c"/>
  <circle cx="48" cy="38" r="3.1" fill="#3a2a1c"/>
  <circle cx="33.1" cy="37" r="0.9" fill="#ffffff"/>
  <circle cx="49.1" cy="37" r="0.9" fill="#ffffff"/>
  <!-- narinas -->
  <ellipse cx="35.5" cy="55" rx="1.7" ry="2.4" fill="#8a6039"/>
  <ellipse cx="44.5" cy="55" rx="1.7" ry="2.4" fill="#8a6039"/>
</svg>
